# xmcd
#
# Track frame offsets:
#	150
#	12693
#	24206
#	45391
#	59802
#	70342
#	85561
#	96981
#	109346
#	122901
#	137043
#	147542
#	162423
#	175413
#	187870
#	201557
#	213348
#	226695
#	239245
#	252938
#	264236
#	277714
#
# Disc length: 3885
#
# Revision: 1
# Processed by: cddbd v1.5.1PL0 Copyright (c) Steve Scherf et al.
# Submitted via: CDex 1.51
# Normalized: r0:TDELIM( - )
#
DISCID=460f2b16
DTITLE=Various Artist - Moonlight Serenade
DYEAR=1900
DGENRE=Jazz
TTITLE0=Nat 'King' Cole - You Should Have Told Me
TTITLE1=Fats Waller - Pent Up in a Penthouse
TTITLE2=Louis Armstrong - Jeepers Creepers
TTITLE3=Frank Sinatra - Imagination
TTITLE4=Django Reinhardt - Dounce Ambience
TTITLE5=Glenn Miller - Moonlight Serenade
TTITLE6=Ella Fitzgerald - Hello Ma! I Done it Again
TTITLE7=Bing Crosby - Ac-cent-tchu-ate Te Positive
TTITLE8=Benny Goodman - Junk Man
TTITLE9=Nat 'King' Cole - I'm in the Mood for Love
TTITLE10=Harry James - Little White Lies
TTITLE11=Billie Holiday - Yesterdays
TTITLE12=Nat 'King' Cole - Hit That Jive Jack
TTITLE13=Lena Horne - Careless Love
TTITLE14=Duke Ellington - Prelude to a Kiss
TTITLE15=Django Reinhardt - Louise
TTITLE16=Frank Sinatra - I've Got My Eye on You
TTITLE17=Fats Waller - You Look Good to Me
TTITLE18=Harry James - Song of the Wanderer
TTITLE19=Fred Astaire - Shall We Dance
TTITLE20=Duke Ellington - Moon Mist
TTITLE21=Nat 'King' Cole - I Just Can't See For Looking
EXTD=
EXTT0=
EXTT1=
EXTT2=
EXTT3=
EXTT4=
EXTT5=
EXTT6=
EXTT7=
EXTT8=
EXTT9=
EXTT10=
EXTT11=
EXTT12=
EXTT13=
EXTT14=
EXTT15=
EXTT16=
EXTT17=
EXTT18=
EXTT19=
EXTT20=
EXTT21=
PLAYORDER=
